<?xml version="1.0" encoding="UTF-8"?>
<!DOCTYPE svg PUBLIC "-//W3C//DTD SVG 1.1//EN" "http://www.w3.org/Graphics/SVG/1.1/DTD/svg11.dtd">
<!-- Creator: CorelDRAW -->
<svg xmlns="http://www.w3.org/2000/svg" xml:space="preserve" width="2480px" height="3508px" version="1.1" style="shape-rendering:geometricPrecision; text-rendering:geometricPrecision; image-rendering:optimizeQuality; fill-rule:evenodd; clip-rule:evenodd"
viewBox="0 0 2480 3507.43"
 xmlns:xlink="http://www.w3.org/1999/xlink"
 xmlns:xodm="http://www.corel.com/coreldraw/odm/2003">
 <defs>
  <style type="text/css">
   <![CDATA[
    .fil0 {fill:white}
   ]]>
  </style>
 </defs>
 <g id="Layer_x0020_1">
  <metadata id="CorelCorpID_0Corel-Layer"/>
  <path class="fil0" d="M-415.29 1906.69l120.99 0c55.81,0 101.48,45.67 101.48,101.49l0 0c0,46.97 -32.33,86.74 -75.83,98.18l0 0 76.37 93.3 -101.27 0 -131.74 0 0 0c-32.72,0 -59.49,-26.77 -59.49,-59.49l0 -173.98c0,-32.72 26.77,-59.5 59.49,-59.5l0 0c1.45,0 2.89,0.06 4.32,0.16 1.88,-0.1 3.77,-0.16 5.68,-0.16zm-15.96 133.99c7.18,0 13,5.82 13,13 0,7.17 -5.82,12.99 -13,12.99 -7.18,0 -12.99,-5.82 -12.99,-12.99 0,-7.18 5.81,-13 12.99,-13zm21.03 -104.97c23.92,0 43.58,19.57 43.49,43.49l-0.57 147.97c-0.09,23.92 -19.57,43.49 -43.49,43.49 -23.92,0 -43.59,-19.57 -43.49,-43.49l0.56 -147.97c0.1,-23.92 19.58,-43.49 43.5,-43.49z"/>
 </g>
</svg>
